<svg width="80" height="80" fill="none" xmlns="http://www.w3.org/2000/svg">
  <path d="M57.3333 74.6667H20c-.7359 0-1.3333.5974-1.3333 1.3333v2.6667c0 .736.5974 1.3333 1.3333 1.3333.7359 0 1.3333-.5973 1.3333-1.3333v-1.3333h36c.7359 0 1.3333-.5973 1.3333-1.3332 0-.736-.5972-1.3335-1.3333-1.3335Zm-28-41.3334c0 .7359.5973 1.3333 1.3333 1.3333H36c.7359 0 1.3333-.5974 1.3333-1.3333v-8C37.3333 24.5973 36.7359 24 36 24h-5.3333c-.7359 0-1.3333.5973-1.3333 1.3333v8h-.0001ZM32 26.6667h2.6667V32H32v-5.3333ZM17.3333 16H1.33328C.59734 16 0 16.5973 0 17.3333V44c0 .7359.59734 1.3333 1.33328 1.3333S2.66656 44.7359 2.66656 44V18.6667H17.3333c.7359 0 1.3333-.5973 1.3333-1.3333 0-.7359-.5972-1.3334-1.3333-1.3334ZM64 65.3333c0 .7359.5973 1.3333 1.3333 1.3333h5.3333c.7359 0 1.3332-.5974 1.3332-1.3333v-8c0-.736-.5973-1.3333-1.3332-1.3333h-5.3333C64.5973 56 64 56.5973 64 57.3333v8Zm2.6667-6.6666h2.6667V64h-2.6667v-5.3333ZM6.66672 48C.07594 48 0 65.16 0 65.3333c0 3.22 2.29469 5.912 5.33328 6.532v6.8014c0 .736.59734 1.3333 1.33328 1.3333s1.33328-.5973 1.33328-1.3333v-6.8014c3.03856-.62 5.33326-3.312 5.33326-6.532C13.3333 65.16 13.2573 48 6.66672 48Zm0 21.3333c-2.20531 0-4-1.7947-4-4 0-6.6427 1.78406-14.6667 4-14.6667s3.99998 8.024 3.99998 14.6667c0 2.2053-1.79467 4-3.99998 4ZM14.6667 40H9.33328C8.59734 40 8 40.5973 8 41.3333V44c0 .7359.59734 1.3333 1.33328 1.3333.73592 0 1.33332-.5974 1.33332-1.3333v-1.3333h2.6667v6.6667c0 .736.5973 1.3333 1.3333 1.3333.7359 0 1.3332-.5973 1.3332-1.3333v-8C16 40.5973 15.4027 40 14.6667 40Zm50.6666-5.3333h5.3333c.7359 0 1.3332-.5973 1.3332-1.3333v-8c0-.7359-.5973-1.3332-1.3332-1.3332h-5.3333c-.736 0-1.3333.5973-1.3333 1.3332v8c0 .736.5973 1.3333 1.3333 1.3333Zm1.3334-8h2.6667V32h-2.6667v-5.3333Z" fill="#D4C17F"/>
  <path d="M14.6667 24H9.33328C8.59734 24 8 24.5973 8 25.3333v8c0 .7359.59734 1.3333 1.33328 1.3333h5.33332c.7359 0 1.3332-.5974 1.3332-1.3333v-8C16 24.5973 15.4027 24 14.6667 24Zm-1.3334 8h-2.6666v-5.3333h2.6667V32h-.0001Zm29.3334 1.3333c0 .7359.5974 1.3333 1.3333 1.3333h5.3333c.7359 0 1.3333-.5974 1.3333-1.3333v-8c0-.736-.5974-1.3333-1.3333-1.3333H44c-.7359 0-1.3333.5973-1.3333 1.3333v8Zm2.6666-6.6666H48V32h-2.6667v-5.3333ZM78.6667 16h-16c-.7359 0-1.3333.5973-1.3333 1.3333 0 .7359.5974 1.3333 1.3333 1.3333h14.6667v53.5787c-.4186-.1494-.8626-.2453-1.3332-.2453-.2307 0-.46.02-.6854.06-.92-1.6573-2.6706-2.7267-4.6479-2.7267-1.9774 0-3.728 1.0694-4.648 2.7267-.2253-.04-.4547-.06-.6853-.06-2.2053 0-4 1.7947-4 4 0 2.2053 1.7947 4 4 4H76c2.2053 0 4-1.7947 4-4V17.3333C80 16.5973 79.4027 16 78.6667 16ZM76 77.3333H65.3333C64.5986 77.3333 64 76.7347 64 76c0-.7347.5986-1.3333 1.3333-1.3333.2559 0 .4986.0733.7226.2174.3653.2346.8214.2773 1.2241.1146.4027-.1626.7-.512.7973-.9346C68.3587 72.8494 69.4241 72 70.6667 72c1.2427 0 2.308.8494 2.5894 2.0641.0973.4226.3947.772.7973.9346.4014.1627.8586.12 1.2241-.1146.868-.56 2.0559.1253 2.0559 1.1159-.0001.7347-.5987 1.3333-1.3334 1.3333ZM44 18.6667h5.3333c.7359 0 1.3333-.5973 1.3333-1.3333V9.33345c0-.73594-.5974-1.33329-1.3333-1.33329H44c-.7359 0-1.3333.59735-1.3333 1.33329v7.99995c0 .736.5974 1.3333 1.3333 1.3333Zm1.3333-8H48V16h-2.6667v-5.3333Zm-2.6666 38.6666c0 .7359.5974 1.3333 1.3333 1.3333h5.3333c.7359 0 1.3333-.5974 1.3333-1.3333v-8c0-.736-.5974-1.3333-1.3333-1.3333H44c-.7359 0-1.3333.5973-1.3333 1.3333v8Zm2.6666-6.6666H48V48h-2.6667v-5.3333Zm-14.6666-24H36c.7359 0 1.3333-.5973 1.3333-1.3333V9.33345c0-.73594-.5974-1.33329-1.3333-1.33329h-5.3333c-.7359 0-1.3333.59735-1.3333 1.33329v7.99995c-.0001.736.5972 1.3333 1.3333 1.3333Zm1.3333-8h2.6667V16H32v-5.3333Zm7.0533 53.72c-.24.2533-.3867.6-.3867.9467 0 .3468.1467.6933.3867.9468.2533.24.6.3867.9467.3867s.6933-.1467.9467-.3867c.24-.2533.3867-.6.3867-.9468 0-.3467-.1467-.6932-.3867-.9467-.5067-.4934-1.3867-.4934-1.8934 0Zm-9.72-15.0534c0 .7359.5973 1.3333 1.3333 1.3333H36c.7359 0 1.3333-.5974 1.3333-1.3333v-8C37.3333 40.5973 36.7359 40 36 40h-5.3333c-.7359 0-1.3333.5973-1.3333 1.3333v8h-.0001ZM32 42.6667h2.6667V48H32v-5.3333Z" fill="#D4C17F"/>
  <path d="M26.6667 57.3333c0 .7359.5974 1.3333 1.3333 1.3333h4v12c0 .7359.5973 1.3332 1.3333 1.3332.7359 0 1.3333-.5973 1.3333-1.3332v-12h10.6667v12c0 .7359.5973 1.3332 1.3333 1.3332.7359 0 1.3332-.5973 1.3332-1.3332v-12h4c.736 0 1.3333-.5974 1.3333-1.3333 0-.736-.5973-1.3333-1.3333-1.3333H28c-.7359 0-1.3333.5973-1.3333 1.3333Zm37.3333-8c0 .7359.5973 1.3333 1.3333 1.3333h5.3333c.7359 0 1.3332-.5974 1.3332-1.3333v-8c0-.736-.5973-1.3333-1.3332-1.3333h-5.3333C64.5973 40 64 40.5973 64 41.3333v8Zm2.6667-6.6666h2.6667V48h-2.6667v-5.3333Z" fill="#D4C17F"/>
  <path d="M57.3333 0H22.6667c-.7359 0-1.3333.59734-1.3333 1.33328V70.6666c0 .7359.5974 1.3332 1.3333 1.3332.736 0 1.3333-.5973 1.3333-1.3332V2.66656h32V70.6666c0 .7359.5973 1.3332 1.3333 1.3332.7359 0 1.3333-.5973 1.3333-1.3332V1.33328C58.6667.59734 58.0694 0 57.3333 0Z" fill="#D4C17F"/>
</svg>
