<svg width="80" height="80" fill="none" xmlns="http://www.w3.org/2000/svg">
  <path d="M73.3333 45.3333c.7373 0 1.3333-.5974 1.3333-1.3333v-5.3333c0-.7359-.596-1.3333-1.3333-1.3333h-6.6667V36c0-.7359-.596-1.3333-1.3333-1.3333C64.5959 34.6667 64 35.2641 64 36v1.3333H26.6667V36c0-.7359-.5973-1.3333-1.3333-1.3333-.7359 0-1.3332.5974-1.3332 1.3333v1.3333h-6.6668c-.7359 0-1.3332.5973-1.3332 1.3333V44c0 .7359.5973 1.3333 1.3332 1.3333h55.9999Zm-54.6666-2.6666V40H72v2.6667H18.6667ZM48 29.3333c-2.156 0-3.5494 1.6386-3.7014 1.8267-.4614.5667-.376 1.3947.1879 1.8614.5654.468 1.4015.3867 1.8747-.1706.0053-.0094.728-.8506 1.6386-.8506.9107 0 1.6321.8414 1.6321.8414.264.324.6479.492 1.0359.492.2959 0 .592-.0974.84-.2986.572-.4641.6573-1.3041.1933-1.8747-.1517-.1883-1.5452-1.827-3.7011-1.827ZM73.3333 56c.7373 0 1.3333-.5973 1.3333-1.3333v-5.3333c0-.7359-.596-1.3332-1.3333-1.3332h-6.6667v-1.3333c0-.736-.596-1.3333-1.3333-1.3333-.7374 0-1.3333.5973-1.3333 1.3333v1.3333H26.6667v-1.3333c0-.736-.5973-1.3333-1.3333-1.3333-.7359 0-1.3332.5973-1.3332 1.3333v1.3333h-6.6668c-.7359 0-1.3332.5973-1.3332 1.3332v5.3333c0 .736.5973 1.3333 1.3332 1.3333h55.9999Zm-54.6666-2.6667v-2.6667H72v2.6667H18.6667Zm36.2986-27.16c.2641.3253.648.4933 1.0359.4933.296 0 .5921-.0974.84-.2986.5721-.4641.6574-1.3041.1933-1.8747-.152-.188-1.5453-1.8267-3.7014-1.8267-2.1561 0-3.5494 1.6386-3.7014 1.8267-.4614.5667-.3759 1.3947.188 1.8614.5653.4694 1.4014.3867 1.8733-.1706.0067-.0094.7293-.8507 1.64-.8507.9111-.0001 1.6323.8399 1.6323.8399ZM1.34008 17.4667c.06796.6814.6414 1.2 1.32671 1.2h8.00001c.6853 0 1.2586-.5186 1.3267-1.2l1.3333-13.33326c.0373-.37594-.0853-.74797-.3386-1.02797a1.33163 1.33163 0 0 0-.988-.43859H8.00008v-1.3336C8.00008.59734 7.40273 0 6.66679 0c-.73593 0-1.33328.59734-1.33328 1.33328v1.33328h-4c-.37734 0-.73593.16-.98797.4386-.25328.28-.37593.65203-.33859 1.02796L1.34008 17.4667ZM10.5268 5.33328 9.46008 16H3.87336L2.80664 5.33328h7.72016Z" fill="#D4C17F"/>
  <path d="M37.3333 30.6667c0 1.4906.6093 2.8774 1.7159 3.9027.2559.2373.5814.3559.9067.3559.3574 0 .7147-.144.9774-.4267.5-.54.4693-1.3841-.0707-1.8853-.5573-.5147-.8626-1.2067-.8626-1.9467 0-1.1041.7026-2.1053 1.7506-2.4907.4347-.16.7547-.5346.8453-.9893.092-.4547-.0614-.9241-.4-1.24-.5573-.5147-.8626-1.2068-.8626-1.9468 0-1.3867 1.092-2.5467 2.4853-2.6426.512-.0347.9573-.3586 1.1479-.8347.1894-.4759.0907-1.0186-.2559-1.3959-.4586-.5-.7106-1.1374-.7106-1.7933 0-1.3867 1.092-2.5467 2.4853-2.6427a1.3324 1.3324 0 0 0 1.148-.8347c.1893-.4759.0906-1.0186-.256-1.3959-.4573-.5-.7106-1.1373-.7106-1.7933 0-1.19201.812-2.24404 1.9733-2.55857.3693-.1.6759-.35204.8453-.69204.1706-.34.1867-.73859.044-1.09062-.1293-.32672-.1959-.66-.1959-.99203 0-1.47063 1.1959-2.66672 2.6667-2.66672 1.4707 0 2.6668 1.19594 2.6668 2.66672 0 .33203-.0668.66531-.196.99203-.1426.35203-.1267.75062.0441 1.09062.1693.34.4759.59204.8453.69204 1.1614.31468 1.9733 1.36671 1.9733 2.55857 0 .656-.2533 1.2933-.7107 1.7933-.3467.3773-.4453.92-.2559 1.3959.1906.476.6359.8 1.148.8347 1.3933.096 2.4853 1.256 2.4853 2.6427 0 .6559-.2533 1.2933-.7106 1.7933-.3468.3773-.4453.92-.256 1.3959.1907.4759.636.8 1.148.8347 1.3933.0959 2.4853 1.2559 2.4853 2.6426 0 .74-.3053 1.4321-.8626 1.9468-.3386.3159-.4921.7853-.4 1.24.0906.4547.4106.8293.8467.9893 1.0467.3854 1.7493 1.3868 1.7493 2.4907 0 .7359.596 1.3332 1.3333 1.3332.7374 0 1.3333-.5973 1.3333-1.3332 0-1.6241-.7533-3.1347-1.9786-4.1294.4214-.7694.6453-1.6347.6453-2.5374 0-2.0853-1.2267-3.9173-3.0159-4.784.2294-.5974.3494-1.2347.3494-1.8827 0-2.0853-1.2268-3.9173-3.016-4.784.2294-.5974.3494-1.2347.3494-1.8827 0-1.94406-1.0694-3.69999-2.7147-4.62937.032-.23328.048-.46797.048-.70406C57.3333 2.39203 54.9414 0 52 0s-5.3333 2.39203-5.3333 5.33328c0 .23594.0159.47063.048.70406C45.0693 6.96672 44 8.72266 44 10.6667c0 .648.12 1.2853.3493 1.8827-1.7893.8667-3.0159 2.6986-3.0159 4.784 0 .648.12 1.2854.3494 1.8827-1.7894.8667-3.016 2.6986-3.016 4.7841 0 .9026.2241 1.7679.6454 2.5373-1.2255.9945-1.9789 2.5052-1.9789 4.1292Z" fill="#D4C17F"/>
  <path d="M50.1587 18.5614c.6774.28 1.4574-.0427 1.7414-.72.0254-.0641.0627-.1347.1-.2041.0374.0668.0721.136.0974.1986.2106.5174.7094.8321 1.2359.8321.168 0 .3374-.0321.5013-.1.6826-.276 1.012-1.0547.7347-1.736-.148-.3614-.9613-2.1653-2.5694-2.1653-1.608 0-2.4214 1.8041-2.5694 2.1653-.2759.6786.0508 1.4494.7281 1.7294Zm28.508 58.7719H57.3333c-.7374 0-1.3333.5973-1.3333 1.3333 0 .7359.5959 1.3332 1.3333 1.3332h21.3333c.7373 0 1.3332-.5973 1.3332-1.3332 0-.736-.5957-1.3333-1.3331-1.3333Zm0-18.6666h-12v-1.3333c0-.7359-.5959-1.3332-1.3333-1.3332-.7373 0-1.3332.5973-1.3332 1.3332v1.3333H26.6667v-1.3333c0-.7359-.5973-1.3332-1.3333-1.3332-.7359 0-1.3332.5973-1.3332 1.3332v1.3333H12c-.7359 0-1.3333.5974-1.3333 1.3333v5.3333c0 .7359.5974 1.3333 1.3333 1.3333h4v6.6667c0 .7359.5973 1.3333 1.3333 1.3333.7359 0 1.3333-.5974 1.3333-1.3333v-6.6667H72v6.6667c0 .7359.5959 1.3333 1.3333 1.3333.7373 0 1.3333-.5974 1.3333-1.3333v-6.6667h4c.7373 0 1.3332-.5974 1.3332-1.3333V60c.0002-.7359-.5957-1.3333-1.3331-1.3333ZM77.3333 64h-64v-2.6667h64V64Z" fill="#D4C17F"/>
  <path d="M20 77.3333H8V22.6667c0-.7359-.59735-1.3333-1.33328-1.3333-.73594 0-1.33329.5974-1.33329 1.3333v54.6667h-4c-.73593 0-1.33328.5974-1.33328 1.3333 0 .736.59719 1.3333 1.33313 1.3333H20c.7359 0 1.3333-.5973 1.3333-1.3333 0-.7359-.5974-1.3334-1.3333-1.3334Zm32 0h-2.6667c-.7374 0-1.3333.5973-1.3333 1.3333 0 .7359.5959 1.3332 1.3333 1.3332H52c.7373 0 1.3333-.5973 1.3333-1.3332 0-.736-.596-1.3333-1.3333-1.3333Zm-10.6667 0H28c-.7359 0-1.3333.5973-1.3333 1.3333C26.6667 79.4025 27.2641 80 28 80h13.3333c.7373 0 1.3333-.5973 1.3333-1.3333 0-.7359-.596-1.3334-1.3333-1.3334Z" fill="#D4C17F"/>
</svg>
