<svg width="80" height="62" fill="none" xmlns="http://www.w3.org/2000/svg">
  <path d="M20 59.0011H1.33328C.59594 59.0011 0 59.5984 0 60.3344c0 .7359.59594 1.3332 1.33328 1.3332H20c.7373 0 1.3333-.5973 1.3333-1.3332 0-.736-.596-1.3333-1.3333-1.3333Zm-4-2.6694c8.8226 0 16-7.1787 16-16 0-4.4173-1.7614-8.5306-4.96-11.5827-.5306-.5067-1.3774-.4867-1.8853.0441-.508.5333-.488 1.3774.044 1.8853 2.6654 2.5441 4.1347 5.9706 4.1347 9.6533 0 7.352-5.9814 13.3333-13.3333 13.3333-7.35182 0-13.33323-5.9814-13.33323-13.3333 0-7.3533 5.98141-13.3333 13.33323-13.3333.7374 0 1.3333-.5973 1.3333-1.3333 0-.7373-.5959-1.3332-1.3333-1.3332-8.8226 0-15.99995 7.1773-15.99995 16C0 49.153 7.17734 56.3317 16 56.3317Z" fill="#D4C17F"/>
  <path d="M22.6667 18.9983h.676L15.64 37.7009c-1.2986.1774-2.3067 1.2827-2.3067 2.6307 0 1.4706 1.1959 2.6667 2.6667 2.6667 1.4706 0 2.6667-1.196 2.6667-2.6667 0-.6107-.2133-1.1653-.56-1.616l7.5241-18.2694 8.4387 12.2521c.416.6067 1.2441.7612 1.8533.3426.608-.4186.76-1.2479.3414-1.8547l-8.3947-12.1879h2.7974c2.2053 0 4-1.7947 4-4 0-2.2067-1.7947-4-4-4h-8c-.7374 0-1.3333.5959-1.3333 1.3333v5.3332c-.0003.7363.5958 1.3335 1.3331 1.3335ZM24 13.665h6.6667c.736 0 1.3333.5973 1.3333 1.3333 0 .7347-.5973 1.3333-1.3333 1.3333H24V13.665Zm38.6667 12c0 .7359.596 1.3333 1.3333 1.3333 7.352 0 13.3333 5.98 13.3333 13.3333 0 7.352-5.9814 13.3332-13.3333 13.3332s-13.3333-5.9814-13.3333-13.3332c0-3.996 1.7694-7.7468 4.8574-10.2933.5667-.468.6479-1.308.1786-1.876-.468-.5667-1.3068-.6506-1.8774-.1812C50.1239 31.0358 48 35.5358 48 40.3317c0 8.8213 7.1773 16 16 16 8.8227 0 16-7.1787 16-16 0-8.8226-7.1773-16-16-16-.7373 0-1.3333.5959-1.3333 1.3333ZM41.3333 59.0011H28c-.7373 0-1.3333.5973-1.3333 1.3333 0 .7359.596 1.3332 1.3333 1.3332h13.3333c.7373 0 1.3333-.5973 1.3333-1.3332.0001-.736-.596-1.3333-1.3333-1.3333Z" fill="#D4C17F"/>
  <path d="M41.3333 33.8544V29.665c.7373 0 1.3333-.5974 1.3333-1.3333 0-.7373-.596-1.3333-1.3333-1.3333h-2.6667c-.7374 0-1.3333.596-1.3333 1.3333 0 .7359.5959 1.3333 1.3333 1.3333v4.1894c-2.2947.5959-4 2.6653-4 5.144 0 2.4774 1.7053 4.5468 4 5.1441v4.1894c-.7374 0-1.3333.5959-1.3333 1.3333 0 .7359.5959 1.3332 1.3333 1.3332h2.6667c.7373 0 1.3333-.5973 1.3333-1.3332 0-.7374-.596-1.3333-1.3333-1.3333v-4.1894c2.2947-.5973 4-2.6667 4-5.1441 0-2.4787-1.7053-4.5481-4-5.144ZM40 41.665c-1.4694 0-2.6667-1.1959-2.6667-2.6667 0-1.4706 1.1973-2.6667 2.6667-2.6667 1.4706 0 2.6667 1.1959 2.6667 2.6667S41.4706 41.665 40 41.665Zm21.9453-3.0133c-.3759.46-.612 1.04-.612 1.68 0 1.4706 1.1973 2.6667 2.6667 2.6667s2.6667-1.1959 2.6667-2.6667c0-1.32-.9667-2.4106-2.2253-2.6226L58.424 21.665h9.5186c1.596 0 2.5241-1.2759 2.6986-2.4053l1.3321-6.6667c.0786-.3921-.0227-.7986-.276-1.1068-.2533-.3093-.6306-.4879-1.0306-.4879h-12c-.7373 0-1.3333.5959-1.3333 1.3333 0 .7359.596 1.3332 1.3333 1.3332H69.04l-1.0186 5.1014c-.02.0921-.0774.2214-.0786.2321H57.4242L53.2495 7.86359c-.0026-.00532-.0067-.00797-.0079-.01329-.0027-.00531-.0015-.01062-.0027-.01468L50.5722 1.1689c-.2733-.68406-1.056-1.01203-1.7333-.74266-.6841.27328-1.0173 1.04938-.7441 1.73328l2.4294 6.06797-5.0147 8.77591c-.3667.6388-.144 1.4533.496 1.8188.2079.1186.4359.1759.66.1759.464 0 .9132-.2412 1.1586-.672l3.9253-6.868 3.2079 8.556-10.1614 11.4306c-.4906.5506-.44 1.3933.1107 1.8826.2532.2268.5693.3374.8853.3374.3667 0 .7332-.1521.9959-.448l9.228-10.38 5.9295 15.815Zm16.7214 20.3494H57.3333c-.7374 0-1.3333.5973-1.3333 1.3333 0 .7359.5959 1.3332 1.3333 1.3332h21.3333c.7373 0 1.3332-.5973 1.3332-1.3332.0002-.736-.5957-1.3333-1.3331-1.3333Zm-26.6667 0h-2.6667c-.7374 0-1.3333.5973-1.3333 1.3333 0 .7359.5959 1.3332 1.3333 1.3332H52c.7373 0 1.3333-.5973 1.3333-1.3332 0-.736-.596-1.3333-1.3333-1.3333Z" fill="#D4C17F"/>
</svg>
